<svg
  width="64"
  height="64"
  viewBox="0 0 32 32"
  fill="none"
  xmlns="http://www.w3.org/2000/svg"
>
  <path
    d="M31.3965 14.5743L17.425 0.603515C16.6209 -0.201111 15.3159 -0.201111 14.5107 0.603515L11.6095 3.50477L15.2899 7.18514C16.1451 6.89614 17.1259 7.09002 17.8076 7.77177C18.4926 8.45789 18.6851 9.44702 18.3891 10.305L21.936 13.852C22.7941 13.5564 23.7843 13.7476 24.4696 14.4341C25.4275 15.3916 25.4275 16.9435 24.4696 17.9016C23.5115 18.8599 21.9596 18.8599 21.001 17.9016C20.2805 17.1804 20.1025 16.1223 20.4673 15.2346L17.1595 11.9269L17.1591 20.6315C17.3989 20.7501 17.6179 20.9067 17.8076 21.0953C18.7655 22.0528 18.7655 23.6048 17.8076 24.5637C16.8495 25.5214 15.2969 25.5214 14.3401 24.5637C13.3822 23.6048 13.3822 22.0529 14.3401 21.0954C14.5697 20.8657 14.8425 20.6839 15.1427 20.5603V11.7745C14.842 11.6518 14.5691 11.4698 14.3401 11.2394C13.6144 10.5146 13.4399 9.44977 13.8118 8.55864L10.1838 4.93027L0.60375 14.5096C-0.20125 15.315 -0.20125 16.6201 0.60375 17.4249L14.5755 31.3959C15.3799 32.2007 16.6846 32.2007 17.49 31.3959L31.3964 17.4898C32.2011 16.6848 32.2011 15.3789 31.3964 14.5743"
    fill="#DE4C36"
  />
</svg>