<svg width="106" height="64" viewBox="0 0 53 32" fill="none" xmlns="http://www.w3.org/2000/svg">
<path d="M12.5057 8.34289H22.502V9.13781H13.422V15.1202H21.9606V15.915H13.422V22.4831H22.6062V23.2779H12.5057V8.34289ZM23.3976 8.34289H24.4597L29.1663 14.911L33.9769 8.34278L40.5203 0L29.7702 15.6013L35.3098 23.2779H34.206L29.1663 16.2915L24.1056 23.2779H23.0227L28.604 15.6012L23.3975 8.34289H23.3976ZM35.7054 9.13781V8.34278H47.0971V9.13771H41.849V23.2778H40.9327V9.13781H35.7054ZM0 8.34278H1.1454L16.9398 31.9879L10.4128 23.2778L0.957934 9.47241L0.91632 23.278H0V8.34278ZM47.0048 22.243C46.8175 22.243 46.6772 22.098 46.6772 21.9104C46.6772 21.7229 46.8175 21.5777 47.0048 21.5777C47.1942 21.5777 47.3324 21.7228 47.3324 21.9104C47.3324 22.0979 47.1942 22.243 47.0048 22.243ZM47.9052 21.3679H48.3955C48.4021 21.6336 48.596 21.8122 48.8813 21.8122C49.2 21.8122 49.3806 21.6202 49.3806 21.2607V18.9835H49.8798V21.2629C49.8798 21.9104 49.5054 22.2833 48.8858 22.2833C48.304 22.2833 47.9052 21.9216 47.9052 21.3678V21.3679ZM50.5328 21.3389H51.0276C51.07 21.6447 51.3686 21.8389 51.7988 21.8389C52.1999 21.8389 52.4941 21.6313 52.4941 21.3456C52.4941 21.1 52.3069 20.9526 51.8812 20.8522L51.4666 20.7517C50.8849 20.6155 50.6198 20.3342 50.6198 19.8609C50.6198 19.2872 51.0878 18.9054 51.7898 18.9054C52.4428 18.9054 52.9198 19.2871 52.9488 19.8296H52.4629C52.4161 19.5327 52.1575 19.3474 51.7831 19.3474C51.3887 19.3474 51.1257 19.5372 51.1257 19.8274C51.1257 20.0573 51.295 20.1891 51.714 20.2873L52.0684 20.3744C52.7281 20.5285 53 20.7964 53 21.2808C53 21.897 52.5231 22.2833 51.7609 22.2833C51.0477 22.2833 50.5684 21.9148 50.5328 21.3388V21.3389Z" fill="black"/>
</svg>
