<svg width="220" height="64" viewBox="0 0 110 32" fill="none" xmlns="http://www.w3.org/2000/svg">
<path d="M0.715859 24.8331V12.5955H16.0007V11.8797H0.715859V0.715597H16.9671V0H0V25.5487H17.1102V24.8331H0.716074H0.715859ZM30.8917 7.1564L24.556 15.4938L18.3631 7.15662H17.4324L24.1263 16.0307L16.7879 25.5485H17.6471L24.5556 16.567L31.5 25.5485H32.3948L25.0209 16.0303L31.7505 7.15619H30.8915L30.8917 7.1564ZM34.5428 31.8464V20.3962H34.6143C35.044 22.066 35.8912 23.4079 37.1559 24.4218C38.4207 25.4355 40.0314 25.9426 41.9882 25.9426C43.253 25.9426 44.3747 25.6861 45.3531 25.1733C46.3315 24.6604 47.1488 23.9626 47.8051 23.0799C48.4612 22.1973 48.9625 21.1715 49.3086 20.0026C49.6545 18.8338 49.8276 17.6052 49.8276 16.3172C49.8276 14.9335 49.6485 13.6571 49.2905 12.4884C48.9326 11.3194 48.4135 10.3055 47.7336 9.44687C47.0534 8.58803 46.2301 7.91989 45.2635 7.44311C44.2971 6.96591 43.2053 6.7273 41.9882 6.7273C41.0575 6.7273 40.1925 6.86454 39.3931 7.13879C38.5937 7.41326 37.8838 7.8007 37.2634 8.30174C36.6393 8.80664 36.096 9.40393 35.6525 10.0729C35.1991 10.7529 34.853 11.4983 34.6143 12.3095H34.5428V7.1564H33.8269V31.8464H34.5428ZM41.9882 25.2624C39.7452 25.2624 37.9433 24.4931 36.5832 22.9545C35.223 21.4159 34.5428 19.2032 34.5428 16.3168C34.5428 15.124 34.7099 13.9909 35.044 12.9175C35.3781 11.8441 35.8613 10.9017 36.4936 10.0907C37.1261 9.27957 37.9077 8.63549 38.8382 8.1585C39.7689 7.68129 40.819 7.44268 41.9882 7.44268C43.1814 7.44268 44.2256 7.68129 45.1204 8.1585C46.0152 8.63549 46.7552 9.28558 47.3397 10.1086C47.9243 10.9315 48.3658 11.8739 48.6643 12.9353C48.9625 13.9969 49.1116 15.124 49.1116 16.3168C49.1116 17.3904 48.9745 18.458 48.6999 19.5194C48.4256 20.5809 48.0019 21.5351 47.4291 22.3822C46.8566 23.2288 46.1229 23.9205 45.2278 24.4574C44.3328 24.9941 43.253 25.2624 41.9882 25.2624ZM53.7651 25.5487V15.136C53.7651 14.1341 53.9082 13.1559 54.1948 12.2019C54.4809 11.2477 54.9224 10.4067 55.5191 9.67925C56.1157 8.95162 56.8732 8.37906 57.7921 7.96156C58.7108 7.54405 59.8026 7.37117 61.0674 7.44268V6.72709C59.9696 6.70346 59.0092 6.82244 58.1859 7.08489C57.3624 7.34733 56.6526 7.70513 56.056 8.1585C55.4593 8.61165 54.9822 9.14234 54.6242 9.75076C54.2666 10.3582 54.0011 11.0154 53.8366 11.7008H53.7651V7.1564H53.0492V25.5489H53.7651V25.5487ZM61.9622 16.4957H77.3543C77.4022 15.2314 77.2769 14.0149 76.9785 12.846C76.6803 11.677 76.2029 10.6392 75.5468 9.73294C74.8904 8.82642 74.0433 8.09879 73.0052 7.55007C71.9671 7.00134 70.7321 6.72709 69.3004 6.72709C68.2741 6.72709 67.2719 6.94185 66.2935 7.37138C65.3151 7.8007 64.4559 8.42674 63.7162 9.24972C62.9765 10.0727 62.3799 11.0806 61.9266 12.2736C61.4732 13.4662 61.2464 14.8259 61.2464 16.3526C61.2464 17.7123 61.4015 18.9827 61.7117 20.1634C62.0219 21.3442 62.4991 22.3701 63.1434 23.2408C63.788 24.1115 64.6173 24.7854 65.6313 25.2624C66.6454 25.7396 67.8685 25.9662 69.3004 25.9423C71.4003 25.9423 73.1663 25.3517 74.598 24.1712C76.03 22.9902 76.8771 21.3264 77.1396 19.1794H76.4238C76.1135 21.2072 75.3199 22.7279 74.0433 23.7416C72.7665 24.7555 71.1618 25.2624 69.2287 25.2624C67.9162 25.2624 66.8065 25.0358 65.8997 24.5827C64.993 24.1295 64.2531 23.509 63.6803 22.7219C63.1078 21.9346 62.6841 21.0103 62.4097 19.9487C62.1352 18.8873 61.9861 17.7362 61.9622 16.4957ZM76.6384 15.7801H61.9624C62.0338 14.4919 62.2725 13.335 62.6781 12.3093C63.0839 11.2833 63.6148 10.4067 64.2712 9.67925C64.9273 8.95162 65.6911 8.3971 66.562 8.01525C67.433 7.63361 68.3697 7.44268 69.372 7.44268C70.5652 7.44268 71.6149 7.66346 72.522 8.1048C73.4287 8.54615 74.1864 9.14856 74.7951 9.91184C75.4035 10.6751 75.8628 11.5638 76.1731 12.5775C76.4833 13.5914 76.6384 14.659 76.6384 15.7801ZM92.2096 12.5955H92.9255C92.9255 10.5439 92.3289 9.05299 91.1359 8.12263C89.9424 7.19227 88.3197 6.72709 86.2675 6.72709C85.122 6.72709 84.1556 6.87034 83.368 7.15662C82.5806 7.44269 81.9362 7.81251 81.435 8.26566C80.934 8.71882 80.5761 9.21987 80.3612 9.76859C80.1464 10.3173 80.039 10.8422 80.039 11.343C80.039 12.3449 80.2179 13.1441 80.5761 13.7405C80.934 14.3369 81.4947 14.802 82.2583 15.136C82.7834 15.3744 83.3798 15.5892 84.0482 15.7803C84.7163 15.971 85.4919 16.1737 86.3749 16.3883C87.1623 16.5794 87.9379 16.7701 88.7017 16.9609C89.4652 17.1518 90.1394 17.4082 90.724 17.7301C91.3088 18.0523 91.786 18.4638 92.1559 18.9648C92.5257 19.4657 92.7107 20.1218 92.7107 20.9327C92.7107 21.7201 92.5259 22.388 92.1559 22.9365C91.7891 23.4823 91.3064 23.9406 90.7421 24.2785C90.1693 24.6243 89.5308 24.8747 88.8269 25.0298C88.1229 25.1849 87.4369 25.2624 86.7687 25.2624C84.5971 25.2624 82.9325 24.7794 81.7751 23.8134C80.6178 22.8471 80.0392 21.3264 80.0392 19.2509H79.3231C79.3231 21.565 79.9496 23.2586 81.2023 24.3322C82.4553 25.4056 84.3107 25.9423 86.7687 25.9423C87.5561 25.9423 88.3495 25.8528 89.1492 25.6739C89.9484 25.495 90.6645 25.2029 91.2968 24.7972C91.9237 24.3973 92.4503 23.8587 92.8359 23.223C93.2297 22.5787 93.4267 21.7916 93.4267 20.8612C93.4267 19.9785 93.2536 19.2629 92.9077 18.7142C92.5616 18.1657 92.1082 17.7123 91.5473 17.3545C90.9865 16.9967 90.3543 16.7165 89.6502 16.5137C88.9422 16.3098 88.2322 16.1129 87.5203 15.9231C86.6441 15.6933 85.7671 15.4667 84.8893 15.2434C84.1378 15.0525 83.4397 14.8259 82.7954 14.5634C82.1749 14.301 81.6797 13.9254 81.3098 13.4363C80.9398 12.9473 80.755 12.2496 80.755 11.343C80.755 11.1762 80.8027 10.8779 80.8981 10.4485C80.9935 10.019 81.2204 9.58368 81.5783 9.14234C81.9362 8.70121 82.485 8.30754 83.2249 7.96156C83.9646 7.61579 84.9789 7.44268 86.2675 7.44268C87.1505 7.44268 87.9557 7.53825 88.6836 7.72897C89.4115 7.91989 90.038 8.224 90.5629 8.6415C91.0879 9.05901 91.4936 9.58969 91.78 10.2338C92.0663 10.8781 92.2096 11.6652 92.2096 12.5955ZM108.783 12.5955H109.499C109.499 10.5439 108.902 9.05299 107.709 8.12263C106.516 7.19227 104.893 6.72709 102.841 6.72709C101.695 6.72709 100.729 6.87034 99.9414 7.15662C99.1538 7.44269 98.5095 7.81251 98.0085 8.26566C97.5073 8.71882 97.1493 9.21987 96.9345 9.76859C96.7197 10.3173 96.6124 10.8422 96.6124 11.343C96.6124 12.3449 96.7914 13.1441 97.1496 13.7405C97.5073 14.3369 98.0682 14.802 98.8318 15.136C99.3569 15.3744 99.9533 15.5892 100.621 15.7803C101.29 15.971 102.065 16.1737 102.948 16.3883C103.736 16.5794 104.511 16.7701 105.275 16.9609C106.039 17.1518 106.713 17.4082 107.297 17.7301C107.882 18.0523 108.359 18.4638 108.729 18.9648C109.099 19.4657 109.284 20.1218 109.284 20.9327C109.284 21.7201 109.099 22.388 108.729 22.9365C108.362 23.4823 107.88 23.9406 107.316 24.2785C106.743 24.6243 106.104 24.8747 105.4 25.0298C104.696 25.1849 104.01 25.2624 103.342 25.2624C101.17 25.2624 99.506 24.7794 98.3486 23.8134C97.191 22.8471 96.6124 21.3264 96.6124 19.2509H95.8966C95.8966 21.565 96.5229 23.2586 97.7758 24.3322C99.0286 25.4056 100.884 25.9423 103.342 25.9423C104.13 25.9423 104.923 25.8528 105.722 25.6739C106.522 25.495 107.238 25.2029 107.87 24.7972C108.497 24.3973 109.024 23.8587 109.409 23.223C109.803 22.5787 110 21.7916 110 20.8612C110 19.9785 109.827 19.2629 109.481 18.7142C109.135 18.1657 108.682 17.7123 108.121 17.3545C107.56 16.9967 106.928 16.7165 106.224 16.5137C105.516 16.3098 104.806 16.1129 104.094 15.9231C103.218 15.6933 102.341 15.4667 101.463 15.2434C100.711 15.0525 100.013 14.8259 99.3687 14.5634C98.7482 14.301 98.253 13.9254 97.8832 13.4363C97.5133 12.9473 97.3283 12.2496 97.3283 11.343C97.3283 11.1762 97.376 10.8779 97.4716 10.4485C97.567 10.019 97.7939 9.58368 98.1516 9.14234C98.5095 8.70121 99.0584 8.30754 99.7981 7.96156C100.538 7.61579 101.552 7.44268 102.841 7.44268C103.724 7.44268 104.529 7.53825 105.257 7.72897C105.985 7.91989 106.611 8.224 107.136 8.6415C107.661 9.05901 108.067 9.58969 108.353 10.2338C108.64 10.8781 108.783 11.6652 108.783 12.5955H108.783Z" fill="#222222"/>
</svg>
