<svg width="224" height="64" viewBox="0 0 112 32" fill="none" xmlns="http://www.w3.org/2000/svg">
<path fill-rule="evenodd" clip-rule="evenodd" d="M104.281 13.2522C104.18 13.2723 104.079 13.4948 104.079 13.616C104.059 14.4252 104.039 16.5692 104.039 18.0254C104.039 18.066 104.099 18.1468 104.16 18.1468C104.463 18.167 105.189 18.1872 105.815 18.1872C106.683 18.1872 107.188 18.066 107.471 17.9448C108.197 17.5805 108.54 16.7917 108.54 15.9218C108.54 13.9601 107.168 13.2116 105.129 13.2116C104.988 13.1915 104.584 13.1915 104.281 13.2522ZM109.489 22.2933C109.489 20.2908 108.016 19.1783 105.351 19.1783C105.23 19.1783 104.382 19.1581 104.18 19.1985C104.12 19.2189 104.039 19.2594 104.039 19.3201C104.039 20.7559 104.019 23.0418 104.079 23.9316C104.12 24.3158 104.402 24.862 104.746 25.0238C105.109 25.2261 105.936 25.2664 106.502 25.2664C108.096 25.2664 109.489 24.3765 109.489 22.2933ZM100.163 12.1398C100.365 12.1398 100.97 12.2003 102.525 12.2003C103.999 12.2003 105.169 12.16 106.603 12.16C108.359 12.16 110.781 12.7869 110.781 15.4163C110.781 16.7108 109.873 17.7425 108.682 18.2481C108.621 18.2683 108.621 18.3086 108.682 18.3288C110.377 18.7538 111.871 19.8054 111.871 21.7874C111.871 23.7293 110.66 24.9631 108.904 25.7317C107.834 26.1968 106.502 26.3586 105.149 26.3586C104.12 26.3586 101.354 26.2374 99.82 26.2779C99.6586 26.217 99.9613 25.4889 100.102 25.3677C100.466 25.3473 100.748 25.3271 101.132 25.2057C101.677 25.0643 101.738 24.9024 101.818 24.0732C101.859 23.3653 101.859 20.857 101.859 19.0773C101.859 16.6299 101.879 14.9714 101.859 14.1624C101.839 13.5356 101.617 13.333 101.173 13.2116C100.829 13.1511 100.264 13.07 99.7997 13.0095C99.6986 12.9083 100.042 12.2205 100.163 12.1398ZM88.5152 24.7204C89 25.1044 89.9487 25.2662 90.7966 25.2662C91.8866 25.2662 92.9767 25.0643 94.0264 24.1133C95.0963 23.1428 95.8432 21.646 95.8432 19.2594C95.8432 16.9736 94.9752 15.1128 93.1987 14.0208C92.1894 13.3935 90.8974 13.131 89.4036 13.131C88.9595 13.131 88.5356 13.1511 88.2733 13.2723C88.2125 13.3129 88.0714 13.4948 88.0714 13.5958C88.0309 14.0004 88.0309 17.1152 88.0309 18.9357C88.0309 20.8167 88.0309 23.4461 88.0714 23.7495C88.0714 24.053 88.2125 24.5181 88.5155 24.7204H88.5152ZM83.9329 12.1396C84.3166 12.1396 85.7901 12.2003 86.4966 12.2003C87.7687 12.2003 88.6769 12.1398 91.079 12.1398C93.0976 12.1398 94.7934 12.6858 96.0046 13.7173C97.4781 14.9916 98.2455 16.7513 98.2455 18.8951C98.2455 21.9494 96.8525 23.7092 95.4595 24.7204C94.0669 25.7519 92.25 26.3586 89.6661 26.3586C88.2934 26.3586 85.9316 26.3182 83.9733 26.2979H83.9532C83.8524 26.1159 84.1147 25.408 84.2761 25.3878C84.8011 25.3271 84.9424 25.3067 85.2049 25.2059C85.6286 25.0439 85.7096 24.8215 85.7702 24.0732C85.8305 22.6775 85.8104 20.9988 85.8104 19.0974C85.8104 17.7425 85.8305 15.0926 85.7901 14.2431C85.7297 13.5353 85.4269 13.3532 84.8212 13.2318C84.5185 13.1713 84.1147 13.0902 83.5496 13.0297C83.4687 12.8879 83.832 12.261 83.9329 12.1398V12.1396Z" fill="#8E714E"/>
<path fill-rule="evenodd" clip-rule="evenodd" d="M59.5073 25.509C59.0026 25.4483 58.6393 25.3677 58.1952 25.1654C58.1346 25.1248 58.0335 24.9227 58.0335 24.8416C57.9933 24.1337 57.9933 22.1111 57.9933 20.7562C57.9933 19.6638 57.8117 18.7132 57.3473 18.0458C56.8022 17.2769 56.0151 16.8322 55.0056 16.8322C54.1175 16.8322 52.9264 17.4389 51.9372 18.2884C51.9171 18.3086 51.7556 18.4504 51.7758 18.2277C51.7758 18.0053 51.8162 17.5603 51.8364 17.2568C51.8567 16.9736 51.695 16.8322 51.695 16.8322C51.0491 17.1557 49.2324 17.5805 48.5661 17.641C48.0817 17.7425 47.9606 18.2076 48.4654 18.3693H48.4855C49.0302 18.5311 49.3938 18.7132 49.6762 18.8953C49.8781 19.0571 49.858 19.2796 49.858 19.4617C49.8781 20.9784 49.8781 23.3045 49.8177 24.5788C49.7976 25.0845 49.6563 25.2664 49.2927 25.3473L49.3332 25.3271C49.0506 25.3878 48.8286 25.4483 48.4853 25.4889C48.3641 25.6103 48.3641 26.2575 48.4853 26.3991C48.7074 26.3991 49.8781 26.3384 50.8474 26.3384C52.1796 26.3384 52.866 26.3991 53.209 26.3991C53.3503 26.2374 53.3908 25.6305 53.3101 25.4889C52.9264 25.4687 52.6438 25.4284 52.3815 25.3473C52.0181 25.2662 51.9171 25.0845 51.8967 24.6597C51.8567 23.5875 51.8567 21.3223 51.8567 19.7852C51.8567 19.3604 51.9777 19.1581 52.0986 19.0367C52.563 18.6323 53.3101 18.3491 53.9762 18.3491C54.6221 18.3491 55.0459 18.5514 55.369 18.8145C55.813 19.1783 55.9543 19.7043 56.0149 20.0885C56.1158 20.9582 56.0755 22.6775 56.0755 24.1742C56.0755 24.9832 56.0149 25.1855 55.7124 25.2866C55.5709 25.3473 55.2075 25.4284 54.7836 25.4685C54.6423 25.6103 54.6827 26.2374 54.7836 26.379C55.369 26.379 56.0554 26.3182 57.0647 26.3182C58.3162 26.3182 59.1238 26.379 59.4469 26.379C59.5475 26.2575 59.588 25.671 59.5073 25.509ZM65.099 17.783C64.0293 17.783 63.363 18.6122 63.363 19.9064C63.363 21.2213 63.9483 22.7382 65.6036 22.7382C65.8862 22.7382 66.4112 22.6168 66.6532 22.3336C67.0369 21.9697 67.2994 21.2414 67.2994 20.4728C67.2994 18.7941 66.4716 17.7828 65.099 17.7828V17.783ZM64.9576 26.7226C64.5541 26.7226 64.2712 26.8441 64.0896 26.9453C63.2418 27.4911 62.8583 28.0171 62.8583 28.6444C62.8583 29.2307 63.0803 29.6958 63.5649 30.1004C64.1502 30.606 64.9576 30.8489 65.9871 30.8489C68.0462 30.8489 68.9546 29.7363 68.9546 28.6444C68.9546 27.8755 68.5709 27.3699 67.7839 27.0869C67.2186 26.8441 66.1892 26.7226 64.9576 26.7226ZM65.099 31.9816C63.8676 31.9816 62.9793 31.7186 62.2123 31.132C61.4653 30.5657 61.1424 29.7162 61.1424 29.1296C61.1424 28.9679 61.1829 28.5227 61.5462 28.1184C61.768 27.8755 62.2528 27.4104 63.4034 26.6216C63.4437 26.6014 63.4638 26.5813 63.4638 26.5405C63.4638 26.5002 63.4233 26.4596 63.3831 26.4397C62.4344 26.0756 62.1517 25.4889 62.0708 25.1654V25.1248C62.0509 25.0034 62.0104 24.8822 62.1922 24.7608C62.3335 24.6597 62.5354 24.5383 62.7572 24.3969C63.1005 24.1944 63.4638 23.9719 63.6858 23.7898C63.7263 23.7495 63.7263 23.7091 63.7263 23.6686C63.7263 23.6281 63.6858 23.5875 63.6454 23.5676C62.2327 23.1022 61.5261 22.0504 61.5261 20.4728C61.5261 19.4413 61.9903 18.5109 62.8178 17.9244C63.3831 17.4794 64.7962 16.9333 65.7248 16.9333H65.7854C66.7341 16.9534 67.2589 17.1557 68.0057 17.4187C68.4095 17.5603 68.7932 17.6208 69.3182 17.6208C70.1053 17.6208 70.4485 17.3782 70.7309 17.0952C70.7512 17.1356 70.7917 17.2368 70.8118 17.4996C70.832 17.7626 70.7512 18.1468 70.5493 18.43C70.3879 18.6525 70.0245 18.8145 69.6612 18.8145H69.5601C69.1968 18.7739 69.0351 18.7334 69.0351 18.7334L68.9546 18.7739C68.9345 18.8145 68.9546 18.8548 68.9748 18.9155L68.9951 18.9561C69.0354 19.138 69.1161 19.6839 69.1161 19.8257C69.1161 21.4843 68.45 22.2122 67.7434 22.7584C67.057 23.264 66.2699 23.5875 65.3816 23.6686C65.3615 23.6686 65.281 23.6686 65.099 23.6888C64.9981 23.6888 64.8568 23.7091 64.8365 23.7091H64.8163C64.6549 23.7495 64.2513 23.9518 64.2513 24.2954C64.2513 24.5988 64.4329 24.9631 65.3009 25.0238C65.4824 25.0439 65.664 25.0439 65.8661 25.0643C67.0167 25.145 68.45 25.2462 69.1161 25.4687C70.0447 25.8124 70.63 26.6417 70.63 27.6329C70.63 29.1299 69.5604 30.5254 67.7839 31.3948C66.9159 31.7793 66.0477 31.9816 65.099 31.9816ZM76.6052 17.8841C76.1815 17.8841 75.7978 17.9849 75.5152 18.1872C74.7281 18.6727 74.3243 19.6436 74.3243 21.0593C74.3243 23.7091 75.6565 25.57 77.5541 25.57C78.1194 25.57 78.5634 25.408 78.9469 25.0845C79.5323 24.5988 79.8353 23.6281 79.8353 22.2729C79.8353 19.6436 78.523 17.8838 76.6054 17.8838L76.6052 17.8841ZM76.9688 26.5407C73.537 26.5407 72.3057 24.0125 72.3057 21.646C72.3057 19.9875 72.9718 18.7132 74.3039 17.803C75.2529 17.2164 76.3834 16.8929 77.3927 16.8929C80.0168 16.8929 81.8539 18.7739 81.8539 21.4843C81.8539 23.3247 81.1272 24.7809 79.7342 25.671C79.0681 26.1159 77.9175 26.5407 76.9685 26.5407H76.9688ZM40.9962 17.8838C40.5723 17.8838 40.1888 17.9849 39.906 18.1872C39.1189 18.6727 38.7151 19.6436 38.7151 21.0593C38.7151 23.7091 40.0473 25.57 41.9449 25.57C42.5102 25.57 42.9542 25.408 43.3379 25.0845C43.9231 24.5988 44.226 23.6281 44.226 22.2729C44.226 19.6436 42.9341 17.8838 40.9962 17.8838ZM41.3596 26.5407C37.9278 26.5407 36.6965 24.0125 36.6965 21.646C36.6965 19.9875 37.3625 18.7132 38.6947 17.803C39.6437 17.2164 40.7742 16.8929 41.7835 16.8929C44.4078 16.8929 46.2447 18.7739 46.2447 21.4843C46.2447 23.3247 45.518 24.7809 44.125 25.671C43.479 26.1159 42.3284 26.5407 41.3596 26.5407ZM18.2862 26.3384C18.2458 26.2779 18.2053 26.0958 18.2256 25.8733C18.2256 25.7113 18.2661 25.6103 18.2862 25.57C18.7102 25.509 18.9322 25.4483 19.1744 25.3878C19.5782 25.2866 19.7396 25.0643 19.7597 24.5587C19.8206 23.3451 19.8206 21.0391 19.8002 19.4413V19.4008C19.8002 19.2188 19.8002 18.9962 19.5782 18.8344C19.2551 18.6323 18.8716 18.4504 18.367 18.3084C18.1854 18.2481 18.0642 18.1468 18.0843 18.0256C18.0843 17.9042 18.2055 17.7626 18.468 17.7221C19.1341 17.6614 20.8699 17.2368 21.5563 16.9333C21.5968 16.9736 21.6574 17.0952 21.6574 17.257L21.6373 17.4792C21.6169 17.7019 21.5968 17.9649 21.5968 18.2277C21.5968 18.3086 21.6777 18.3693 21.7582 18.3693C21.7987 18.3693 21.8392 18.3491 21.8794 18.3288C23.1714 17.3175 24.3421 16.9534 24.9476 16.9534C25.937 16.9534 26.7042 17.4187 27.2896 18.3895C27.3298 18.4504 27.3703 18.4706 27.4309 18.4706C27.4711 18.4706 27.5315 18.4504 27.5518 18.4099C28.7429 17.4996 29.934 16.9534 30.7211 16.9534C32.5984 16.9534 33.7088 18.3491 33.7088 20.7156C33.7088 21.383 33.7088 22.2527 33.6886 23.0417C33.6886 23.7495 33.6685 24.3967 33.6685 24.862C33.6685 24.9628 33.8096 25.2866 34.0316 25.3473C34.3143 25.4889 34.698 25.5496 35.2026 25.6305H35.2227C35.2632 25.7721 35.1825 26.2979 35.1018 26.3991C34.9806 26.3991 34.7988 26.3991 34.5971 26.379C34.0861 26.3522 33.5745 26.3387 33.0628 26.3384C31.8113 26.3384 31.1654 26.3586 30.5393 26.3991C30.4993 26.2374 30.4789 25.7519 30.5393 25.6305C30.9029 25.57 31.0844 25.509 31.3067 25.4485C31.7105 25.3271 31.8113 25.145 31.8317 24.6192C31.8317 24.235 31.9122 20.9582 31.791 20.1694C31.67 19.3604 31.0643 18.4099 29.7319 18.4099C29.2272 18.4099 28.4402 18.6122 27.673 19.1985C27.6328 19.239 27.5921 19.3401 27.5921 19.4008V19.4211C27.673 19.8457 27.673 20.3314 27.673 21.0797V22.3943C27.673 23.3045 27.6527 24.1541 27.673 24.8011C27.673 25.2462 27.9355 25.3473 28.1576 25.4284C28.2787 25.4483 28.3592 25.4687 28.4603 25.4889C28.6419 25.5294 28.8236 25.57 29.1063 25.6305C29.1467 25.7116 29.1467 25.9744 29.0861 26.1968C29.0658 26.3182 29.0253 26.3787 29.0052 26.3991C28.319 26.379 27.6124 26.3586 26.583 26.3586C26.2802 26.3586 25.7552 26.379 25.3112 26.379C24.9476 26.379 24.6046 26.3991 24.4029 26.3991C24.3826 26.3586 24.3421 26.2172 24.3421 25.9945C24.3421 25.8126 24.3826 25.671 24.4231 25.6305C24.5239 25.6103 24.6046 25.5901 24.7057 25.5901C24.9476 25.5496 25.1497 25.509 25.3514 25.4687C25.6949 25.3677 25.8158 25.1855 25.836 24.7406C25.8966 23.7293 25.9571 20.837 25.8158 20.1087C25.5737 18.9357 24.9076 18.3491 23.8375 18.3491C23.2118 18.3491 22.4243 18.6525 21.7786 19.1382C21.6775 19.2188 21.5968 19.4209 21.5968 19.6031V20.7965C21.5968 22.2527 21.5968 24.0732 21.6169 24.862C21.6373 25.1044 21.7178 25.3878 22.1822 25.4889C22.2832 25.509 22.4447 25.5496 22.6466 25.57L23.0097 25.6305C23.0504 25.7519 23.0301 26.2374 22.9493 26.3991C22.7474 26.3991 22.5053 26.379 22.2224 26.379C21.698 26.3528 21.1731 26.3393 20.6481 26.3384C19.9415 26.3384 19.4369 26.3586 19.0331 26.379C18.7504 26.3384 18.5284 26.3384 18.2862 26.3384Z" fill="#442D22"/>
<path fill-rule="evenodd" clip-rule="evenodd" d="M7.66787 31.1928L6.84034 30.9094C6.84034 30.9094 6.9414 26.6823 5.42721 26.379C4.41812 25.2057 5.58909 -23.3773 9.22252 26.217C9.22252 26.217 7.97084 26.8438 7.7488 27.9161C7.50643 28.9679 7.66787 31.1928 7.66787 31.1928Z" fill="white"/>
<path fill-rule="evenodd" clip-rule="evenodd" d="M7.66787 31.1928L6.84034 30.9094C6.84034 30.9094 6.9414 26.6823 5.42721 26.379C4.41812 25.2057 5.58909 -23.3773 9.22252 26.217C9.22252 26.217 7.97084 26.8438 7.7488 27.9161C7.50643 28.9679 7.66787 31.1928 7.66787 31.1928Z" fill="#A6A385"/>
<path fill-rule="evenodd" clip-rule="evenodd" d="M8.11214 27.1071C8.11214 27.1071 15.3593 22.3336 13.6634 12.4024C12.0284 5.18203 8.17274 2.81556 7.7488 1.90531C7.28461 1.25808 6.84033 0.125588 6.84033 0.125588L7.1433 20.2098C7.1433 20.2301 6.51746 26.3586 8.11236 27.1073" fill="white"/>
<path fill-rule="evenodd" clip-rule="evenodd" d="M8.11214 27.1071C8.11214 27.1071 15.3593 22.3336 13.6634 12.4024C12.0284 5.18203 8.17274 2.81556 7.7488 1.90531C7.28461 1.25808 6.84033 0.125588 6.84033 0.125588L7.1433 20.2098C7.1433 20.2301 6.51746 26.3586 8.11236 27.1073" fill="#499D4A"/>
<path fill-rule="evenodd" clip-rule="evenodd" d="M6.4166 27.3699C6.4166 27.3699 -0.386522 22.7178 0.0172909 14.5265C0.40076 6.3349 5.20517 2.30992 6.13376 1.58181C6.73948 0.934575 6.7596 0.691726 6.80007 0.0444927C7.22401 0.954739 7.14329 13.6568 7.20367 15.1533C7.38523 20.9177 6.88079 26.2779 6.4166 27.3699Z" fill="white"/>
<path fill-rule="evenodd" clip-rule="evenodd" d="M6.4166 27.3699C6.4166 27.3699 -0.386522 22.7178 0.0172909 14.5265C0.40076 6.3349 5.20517 2.30992 6.13376 1.58181C6.73948 0.934575 6.7596 0.691726 6.80007 0.0444927C7.22401 0.954739 7.14329 13.6568 7.20367 15.1533C7.38523 20.9177 6.88079 26.2779 6.4166 27.3699Z" fill="#58AA50"/>
</svg>
