<svg width="56" height="64" viewBox="0 0 28 32" fill="none" xmlns="http://www.w3.org/2000/svg">
<path d="M14 31.9407C13.5652 31.9407 13.1595 31.8233 12.7827 31.6179L8.92752 29.2997C8.34783 28.977 8.63767 28.8596 8.81158 28.8009C9.59416 28.5368 9.73908 28.4781 10.5506 28.0086C10.6377 27.9499 10.7536 27.9792 10.8405 28.0379L13.7971 29.8279C13.913 29.8866 14.058 29.8866 14.1449 29.8279L25.7102 23.0496C25.8262 22.9909 25.8841 22.8735 25.8841 22.7268V9.19919C25.8841 9.05248 25.8262 8.93511 25.7102 8.87643L14.1449 2.1273C14.029 2.06862 13.8841 2.06862 13.7971 2.1273L2.2318 8.87654C2.11586 8.93522 2.05789 9.08193 2.05789 9.1993V22.7268C2.05789 22.8442 2.11586 22.9909 2.2318 23.0496L5.39131 24.8981C7.1015 25.7784 8.17381 24.7514 8.17381 23.7244V10.3729C8.17381 10.1968 8.31884 10.0208 8.52173 10.0208H10C10.174 10.0208 10.3479 10.1675 10.3479 10.3729V23.7243C10.3479 26.0425 9.10142 27.3923 6.92748 27.3923C6.26084 27.3923 5.73913 27.3923 4.26092 26.6587L1.21734 24.8981C0.46375 24.4579 0 23.6363 0 22.756V9.22865C0 8.34837 0.46375 7.52678 1.21734 7.08653L12.7827 0.308173C13.5073 -0.102623 14.4927 -0.102623 15.2173 0.308173L26.7827 7.08653C27.5362 7.52667 28 8.34826 28 9.22865V22.7561C28 23.6364 27.5362 24.458 26.7827 24.8981L15.2173 31.6767C14.8405 31.8528 14.4058 31.9408 14 31.9408V31.9407ZM17.5652 22.6386C12.4927 22.6386 11.4493 20.2912 11.4493 18.2958C11.4493 18.1198 11.5942 17.9437 11.7971 17.9437H13.3043C13.4782 17.9437 13.6232 18.0611 13.6232 18.2371C13.8551 19.7923 14.5217 20.5553 17.5942 20.5553C20.029 20.5553 21.0725 19.9978 21.0725 18.6774C21.0725 17.9144 20.7827 17.3569 16.9855 16.9753C13.8261 16.6525 11.855 15.9483 11.855 13.3955C11.855 11.0185 13.826 9.6101 17.1304 9.6101C20.8405 9.6101 22.6667 10.9012 22.8985 13.7182C22.8985 13.8062 22.8695 13.8942 22.8116 13.9823C22.7536 14.0409 22.6667 14.0996 22.5797 14.0996H21.0725C20.9275 14.0996 20.7827 13.9823 20.7536 13.8355C20.4058 12.2217 19.5073 11.6935 17.1304 11.6935C14.4639 11.6935 14.1449 12.6325 14.1449 13.3367C14.1449 14.1878 14.5217 14.4517 18.1159 14.9212C21.6812 15.3907 23.3623 16.0657 23.3623 18.5893C23.3333 21.1715 21.2464 22.6386 17.5652 22.6386V22.6386Z" fill="#539E43"/>
</svg>
