<svg width="64" height="64" viewBox="0 0 36 32" fill="none" xmlns="http://www.w3.org/2000/svg">
<path d="M29.5992 10.3613C29.2161 10.2301 28.8297 10.1086 28.4404 9.99682C28.5058 9.73015 28.566 9.46672 28.6194 9.20791C29.4967 4.95794 28.9232 1.53408 26.9644 0.406786C25.0864 -0.673916 22.015 0.452961 18.9131 3.14728C18.6074 3.41329 18.3084 3.68697 18.0166 3.96805C17.8212 3.78114 17.6224 3.59786 17.4202 3.41829C14.1692 0.537453 10.9107 -0.676723 8.95402 0.453803C7.07766 1.53787 6.52205 4.75654 7.3118 8.78433C7.39037 9.18324 7.47908 9.58009 7.57786 9.97451C7.11661 10.1053 6.67153 10.2445 6.24558 10.3928C2.43408 11.7191 0 13.7975 0 15.9535C0 18.1801 2.61309 20.4135 6.58294 21.7678C6.90478 21.8771 7.2293 21.9784 7.5562 22.0716C7.45003 22.4964 7.35578 22.9241 7.27355 23.3542C6.52064 27.3121 7.10859 30.4546 8.97989 31.5318C10.9126 32.6443 14.1566 31.501 17.3152 28.7452C17.5713 28.5211 17.8218 28.2907 18.0664 28.0542C18.3824 28.3586 18.7069 28.6541 19.0395 28.9404C22.0992 31.5681 25.121 32.6291 26.9904 31.549C28.9214 30.4333 29.549 27.0573 28.7342 22.9499C28.67 22.6282 28.598 22.308 28.5183 21.9897C28.7461 21.9223 28.9697 21.853 29.1877 21.7808C33.3148 20.4162 36 18.2099 36 15.9535C36 13.7897 33.4873 11.6972 29.5992 10.3613ZM28.7041 20.324C28.5072 20.389 28.3053 20.4517 28.0994 20.5128C27.6438 19.0732 27.029 17.5425 26.2765 15.9609C26.9945 14.417 27.5857 12.9059 28.0285 11.4757C28.3968 11.5821 28.7542 11.6942 29.0987 11.8125C32.4301 12.9572 34.4621 14.6495 34.4621 15.9535C34.4621 17.3424 32.2675 19.1455 28.7041 20.324ZM27.2256 23.2481C27.5858 25.0642 27.6372 26.7063 27.3985 27.9901C27.1842 29.1436 26.7531 29.9126 26.2198 30.2207C25.0854 30.8761 22.6592 30.0242 20.0426 27.7769C19.7333 27.5107 19.4314 27.236 19.1374 26.953C20.1518 25.8458 21.1656 24.5587 22.155 23.129C23.8954 22.9749 25.5396 22.7229 27.0307 22.3789C27.1025 22.667 27.1675 22.9568 27.2256 23.2481ZM12.2732 30.1074C11.1648 30.498 10.2819 30.5092 9.74827 30.2022C8.61272 29.5485 8.14064 27.0252 8.78456 23.6405C8.86111 23.2405 8.94875 22.8427 9.04739 22.4476C10.522 22.7732 12.1542 23.0073 13.8987 23.1485C14.8949 24.5474 15.9379 25.8332 16.989 26.9591C16.7657 27.1748 16.537 27.385 16.3032 27.5895C14.9064 28.8081 13.5068 29.6726 12.2732 30.1074ZM7.08047 20.3154C5.32505 19.7165 3.87534 18.9383 2.88169 18.089C1.98872 17.3259 1.53802 16.5682 1.53802 15.9535C1.53802 14.6451 3.49228 12.9763 6.75183 11.8422C7.14741 11.7046 7.56141 11.5748 7.99102 11.453C8.44158 12.9154 9.03249 14.4445 9.74559 15.9908C9.0232 17.5599 8.42386 19.1135 7.96894 20.5932C7.67055 20.5079 7.3743 20.4153 7.08047 20.3154ZM8.82113 8.48945C8.14458 5.03865 8.59387 2.43556 9.72464 1.78222C10.929 1.08636 13.5921 2.07851 16.3991 4.56608C16.5822 4.72866 16.7622 4.89454 16.9393 5.06363C15.8933 6.18461 14.8598 7.46082 13.8725 8.85142C12.1794 9.00805 10.5587 9.25956 9.06862 9.59654C8.97682 9.22969 8.89429 8.86059 8.82113 8.48959V8.48945ZM24.3499 12.3165C23.998 11.7098 23.633 11.1107 23.2552 10.5196C24.4038 10.6646 25.5043 10.857 26.5378 11.0923C26.2275 12.0848 25.8408 13.1224 25.3856 14.1863C25.0529 13.5562 24.7076 12.9328 24.3499 12.3165ZM18.0173 6.16061C18.7266 6.92763 19.437 7.78391 20.1358 8.71303C18.7183 8.64622 17.2984 8.64594 15.8809 8.71219C16.5804 7.79163 17.2969 6.93647 18.0173 6.16061ZM11.644 12.3271C11.2908 12.9384 10.952 13.5579 10.6277 14.185C10.18 13.125 9.79678 12.0826 9.48389 11.076C10.511 10.8466 11.6063 10.6591 12.7477 10.5168C12.3656 11.1115 11.9977 11.715 11.644 12.3269V12.3271ZM12.7804 21.4993C11.6013 21.3679 10.4895 21.1901 9.46266 20.9669C9.78047 19.9424 10.1721 18.8778 10.6296 17.795C10.9551 18.4226 11.2954 19.0425 11.6501 19.6541C12.0149 20.2829 12.3926 20.8987 12.7804 21.4993ZM18.0598 25.8544C17.3308 25.0695 16.6037 24.2012 15.8937 23.2673C16.5831 23.2942 17.2858 23.308 18 23.308C18.7338 23.308 19.4591 23.2916 20.1731 23.2598C19.4721 24.2106 18.7643 25.0802 18.0598 25.8544ZM25.4001 17.7397C25.8813 18.8344 26.2869 19.8934 26.6089 20.9004C25.5652 21.1382 24.4382 21.3296 23.2508 21.4718C23.6313 20.8697 23.9998 20.2602 24.356 19.6436C24.7181 19.0168 25.0663 18.382 25.4001 17.7397ZM23.0238 18.8767C22.4785 19.8221 21.9025 20.7496 21.2968 21.6577C20.1996 21.7353 19.1 21.7738 18 21.7732C16.8796 21.7732 15.7899 21.7384 14.7406 21.6705C14.1191 20.7645 13.5321 19.8354 12.981 18.8851H12.9811C12.4325 17.9399 11.9202 16.9742 11.445 15.9901C11.9189 15.0058 12.4298 14.0396 12.9765 13.0937L12.9763 13.0938C13.5228 12.1476 14.1051 11.2224 14.7219 10.3203C15.7925 10.2395 16.8903 10.1974 17.9999 10.1974H18C19.1146 10.1974 20.2139 10.2399 21.2842 10.3213C21.8948 11.2221 22.4733 12.144 23.0188 13.0855C23.5673 14.0294 24.0848 14.9909 24.5707 15.9683C24.0898 16.9558 23.5739 17.9259 23.0238 18.8767ZM26.1963 1.73647C27.4018 2.43036 27.8706 5.22854 27.1132 8.89802C27.0648 9.13212 27.0105 9.37058 26.9515 9.6124C25.4578 9.26826 23.8359 9.0124 22.1379 8.85338C21.1487 7.44749 20.1237 6.16931 19.0948 5.06279C19.3644 4.80335 19.6405 4.55064 19.9228 4.30489C22.5806 1.99654 25.0646 1.0851 26.1963 1.73647ZM18 12.745C19.7754 12.745 21.2147 14.1815 21.2147 15.9535C21.2147 17.7254 19.7754 19.1619 18 19.1619C16.2246 19.1619 14.7853 17.7254 14.7853 15.9535C14.7853 14.1815 16.2246 12.745 18 12.745Z" fill="#00D8FF"/>
</svg>
