<svg width="64"
  height="64" viewBox="0 0 32 32" fill="none" xmlns="http://www.w3.org/2000/svg">
<path d="M0 16V32H32V0H0V16Z" fill="#007ACC"/>
<path d="M7.07647 16.1063L7.06635 17.4166H11.2313V29.2516H14.1773V17.4166H18.3425V16.1316C18.3425 15.4204 18.3272 14.8261 18.307 14.8109C18.2917 14.7906 15.757 14.7804 12.6841 14.7855L7.0916 14.8008L7.07647 16.1061V16.1063ZM25.8208 14.7635C26.6335 14.9666 27.2532 15.3273 27.8221 15.9165C28.1167 16.2315 28.5535 16.8054 28.5891 16.9425C28.5991 16.9831 27.2075 17.9178 26.3643 18.441C26.3338 18.4613 26.2118 18.3293 26.0747 18.126C25.6633 17.5266 25.2316 17.2676 24.5712 17.2219C23.6012 17.1559 22.9763 17.6638 22.9815 18.512C22.9815 18.761 23.017 18.9083 23.1186 19.1114C23.332 19.5534 23.7281 19.8175 24.9726 20.3559C27.2633 21.3413 28.2436 21.9914 28.8532 22.9159C29.5338 23.947 29.6862 25.5928 29.224 26.8169C28.7161 28.1476 27.4565 29.0518 25.6836 29.3514C25.1351 29.4479 23.8348 29.4326 23.2456 29.326C21.9606 29.0975 20.7415 28.4625 19.9897 27.6295C19.6951 27.3045 19.1211 26.4561 19.1567 26.3953C19.172 26.3749 19.304 26.2936 19.4512 26.2073C19.5935 26.126 20.132 25.8161 20.6398 25.5216L21.5592 24.9883L21.7522 25.2728C22.0215 25.684 22.6106 26.2479 22.9662 26.4359C23.9871 26.9743 25.3891 26.8981 26.0798 26.2784C26.3745 26.0093 26.4963 25.7299 26.4963 25.3184C26.4963 24.9476 26.4506 24.7851 26.2576 24.5058C26.0088 24.1501 25.5008 23.8505 24.0582 23.2258C22.4075 22.5145 21.6963 22.0728 21.0462 21.3718C20.6703 20.9655 20.3147 20.3153 20.1675 19.7718C20.0456 19.3196 20.015 18.187 20.1116 17.7299C20.452 16.1349 21.6557 15.0225 23.3928 14.6924C23.9566 14.5858 25.2671 14.6264 25.8208 14.7635Z" fill="white"/>
</svg>
